<?xml version="1.0" encoding="utf-8"?>
<!-- Generator: Adobe Illustrator 24.3.0, SVG Export Plug-In . SVG Version: 6.00 Build 0)  -->
<svg version="1.1" id="Layer_1" xmlns="http://www.w3.org/2000/svg" xmlns:xlink="http://www.w3.org/1999/xlink" x="0px" y="0px"
     viewBox="0 0 282 282" style="enable-background:new 0 0 282 282;" xml:space="preserve">
<style type="text/css">
    .st0{fill:#191919;}
    .st1{fill:#F2F2F2;}
</style>
<path class="st0" d="M261.78,282H20.22C9.05,282,0,272.95,0,261.78V20.22C0,9.05,9.05,0,20.22,0h241.56C272.95,0,282,9.05,282,20.22
    v241.56C282,272.95,272.95,282,261.78,282z"/>
<g>
    <path class="st1" d="M118.64,217.32v-83.68c0-2.03,1.63-3.68,3.64-3.68h43.47c2.01,0,3.64,1.65,3.64,3.68v83.68
        c0,2.03-1.63,3.68-3.64,3.68h-43.47C120.27,221,118.64,219.35,118.64,217.32z"/>
    <path class="st1" d="M206.65,154.21l59.51-60.04c1.79-1.81,0.51-4.9-2.02-4.89l-40.24,0.18c-0.75,0-1.46,0.3-1.99,0.84
        l-53.55,54.03c-0.53,0.53-0.83,1.26-0.83,2.01l-0.06,17.65c0,0.43-0.23,0.83-0.59,1.06l-3.84,2.34c-1.59,0.97-1.86,3.19-0.54,4.51
        l4.57,4.61c0.23,0.23,0.36,0.55,0.36,0.88l-0.04,10.95c-0.01,3.02-0.4,5.88,1.71,3.75l5.83-5.89c0.48-0.48,1.26-0.48,1.74,0
        l33.56,33.86c0.54,0.54,1.26,0.85,2.02,0.85h51.88c2.55,0,3.83-3.11,2.02-4.93l-59.5-60.02
        C206.17,155.48,206.17,154.69,206.65,154.21z"/>
    <ellipse class="st1" cx="144.02" cy="84.84" rx="28.59" ry="28.84"/>
    <path class="st1" d="M126.84,153.73L63.95,90.29c-0.65-0.66-1.54-1.03-2.46-1.03H61.3H48.32H20.49c-1.93,0-3.49,1.58-3.49,3.52
        v124.7c0,1.94,1.56,3.52,3.49,3.52h38.95c1.93,0,3.49-1.58,3.49-3.52v-46.47c0-1.68,2.01-2.51,3.18-1.33l22.46,22.66
        c1.36,1.37,3.57,1.37,4.93,0l33.34-33.63C128.2,157.33,128.2,155.11,126.84,153.73z"/>
</g>
</svg>
