<?xml version="1.0" encoding="utf-8"?>
<!-- Generator: Adobe Illustrator 21.0.0, SVG Export Plug-In . SVG Version: 6.00 Build 0)  -->
<svg version="1.1" id="Слой_1" xmlns="http://www.w3.org/2000/svg" xmlns:xlink="http://www.w3.org/1999/xlink" x="0px" y="0px"
	 viewBox="0 0 105 97.2" style="enable-background:new 0 0 105 97.2;" xml:space="preserve">
<g>
	<polygon points="63,0 42,12.1 42,36.4 63,24.2 	"/>
	<polygon points="105,12.2 84,24.3 84,24.3 63,36.4 63,36.4 42,48.5 21,36.4 21,36.4 0,24.3 0,48.5 0,73 0,73 0,97.2 21,85.1 
		21,85.1 21,60.7 21,60.7 21,60.6 42,72.8 42,72.8 42,72.8 42,97 63,84.9 63,60.6 63,60.6 84,72.8 84,72.8 84,97 105,84.9 105,84.9 
		105,60.7 84,48.5 105,36.4 	"/>
</g>
</svg>
